# xmcd
#
# Track frame offsets: 
#        150
#        19482
#        32046
#        56206
#        74241
#        99683
#        120108
#        142885
#        156694
#        175571
#        196520
#        212130
#        230337
#
# Disc length: 3326 seconds
#
# Revision: 0
# Processed by: cddbd v1.5.2PL0 Copyright (c) Steve Scherf et al.
# Submitted via: ExactAudioCopy v1.3
#
DISCID=b80cfc0d
DTITLE=Big Harp George - Wash My Horse In Champagne
DYEAR=2016
DGENRE=Blues
TTITLE0=Home Stretch
TTITLE1=Road Kill
TTITLE2=Wash My Horse In Champagne
TTITLE3=Cool Mistake
TTITLE4=My Bright Future
TTITLE5=I Ain't The Judge Of You
TTITLE6=I Wasn't Ready
TTITLE7=If Only
TTITLE8=Light From Darkness
TTITLE9=Mojo Waltz
TTITLE10=What's Big
TTITLE11=Size Matters
TTITLE12=Justice In My Time
EXTD=
EXTT0=
EXTT1=
EXTT2=
EXTT3=
EXTT4=
EXTT5=
EXTT6=
EXTT7=
EXTT8=
EXTT9=
EXTT10=
EXTT11=
EXTT12=
PLAYORDER=
